simulation
nRows=37
nColumns=15
endheader
time  TH_x TH_y TH_z SC_y  SC_z  SC_x  AC_y  AC_z  AC_x  GH_y  GH_z  GH_yy  EL_x  PS_y
0.249682  0.000000  0.000000  0.000000  -2.792741  6.063976  4.350113  65.285700  11.166838  0.878073  59.440952  54.243261  -33.252134  17.017429  93.049516
0.250318  0.000000  0.000000  0.000000  -2.792741  6.063976  8.635828  65.575023  7.268840  -0.926887  59.440952  54.243261  -33.252134  17.017429  93.049516
0.250953  0.000000  0.000000  0.000000  -2.792741  6.063976  12.921542  65.739486  3.363829  -2.700722  59.440952  54.243261  -33.252134  17.017429  93.049516
0.251588  0.000000  0.000000  0.000000  -2.792741  6.063976  17.207256  65.782805  -0.544371  -4.460377  59.440952  54.243261  -33.252134  17.017429  93.049516
0.252224  0.000000  0.000000  0.000000  -2.792741  6.063976  21.492971  65.705954  -4.452059  -6.222318  59.440952  54.243261  -33.252134  17.017429  93.049516
0.252859  0.000000  0.000000  0.000000  -2.792741  6.063976  25.778685  65.507203  -8.355505  -8.003094  59.440952  54.243261  -33.252134  17.017429  93.049516
0.253494  0.000000  0.000000  0.000000  -2.792741  6.063976  30.064399  65.182049  -12.250840  -9.819866  59.440952  54.243261  -33.252134  17.017429  93.049516
0.254130  0.000000  0.000000  0.000000  -2.792741  6.063976  34.350113  64.722968  -16.133870  -11.691076  59.440952  54.243261  -33.252134  17.017429  93.049516
0.254765  0.000000  0.000000  0.000000  -2.792741  6.063976  38.635828  64.119068  -19.999934  -13.637058  59.440952  54.243261  -33.252134  17.017429  93.049516
0.255400  0.000000  0.000000  0.000000  -2.792741  6.063976  42.921542  63.355530  -23.843690  -15.680871  59.440952  54.243261  -33.252134  17.017429  93.049516
0.256036  0.000000  0.000000  0.000000  -2.792741  6.063976  47.207256  62.412825  -27.658847  -17.849269  59.440952  54.243261  -33.252134  17.017429  93.049516
0.256671  0.000000  0.000000  0.000000  -2.792741  6.063976  51.492971  61.265668  -31.437829  -20.173912  59.440952  54.243261  -33.252134  17.017429  93.049516
0.257306  0.000000  0.000000  0.000000  -15.739850  -5.832471  -8.507029  67.763238  23.820888  -3.351119  52.916435  64.786340  -51.021222  20.679529  87.649113
0.257942  0.000000  0.000000  0.000000  -15.739850  -5.832471  -4.221315  68.404412  19.844578  -5.074025  52.916435  64.786340  -51.021222  20.679529  87.649113
0.258577  0.000000  0.000000  0.000000  -15.739850  -5.832471  0.064399  68.906937  15.852539  -6.712461  52.916435  64.786340  -51.021222  20.679529  87.649113
0.259212  0.000000  0.000000  0.000000  -15.739850  -5.832471  4.350113  69.284143  11.848662  -8.287119  52.916435  64.786340  -51.021222  20.679529  87.649113
0.259848  0.000000  0.000000  0.000000  -15.739850  -5.832471  8.635828  69.545695  7.836344  -9.816166  52.916435  64.786340  -51.021222  20.679529  87.649113
0.260483  0.000000  0.000000  0.000000  -15.739850  -5.832471  12.921542  69.698077  3.818620  -11.315957  52.916435  64.786340  -51.021222  20.679529  87.649113
0.261118  0.000000  0.000000  0.000000  -15.739850  -5.832471  17.207256  69.744997  -0.201688  -12.801748  52.916435  64.786340  -51.021222  20.679529  87.649113
0.261753  0.000000  0.000000  0.000000  -15.739850  -5.832471  21.492971  69.687588  -4.221859  -14.288275  52.916435  64.786340  -51.021222  20.679529  87.649113
0.262389  0.000000  0.000000  0.000000  -15.739850  -5.832471  25.778685  69.524463  -8.239168  -15.790306  52.916435  64.786340  -51.021222  20.679529  87.649113
0.263024  0.000000  0.000000  0.000000  -15.739850  -5.832471  30.064399  69.251653  -12.250783  -17.323161  52.916435  64.786340  -51.021222  20.679529  87.649113
0.263659  0.000000  0.000000  0.000000  -15.739850  -5.832471  34.350113  68.862360  -16.253631  -18.903369  52.916435  64.786340  -51.021222  20.679529  87.649113
0.264295  0.000000  0.000000  0.000000  -15.739850  -5.832471  38.635828  68.346602  -20.244279  -20.549286  52.916435  64.786340  -51.021222  20.679529  87.649113
0.264930  0.000000  0.000000  0.000000  -15.739850  -5.832471  42.921542  67.690613  -24.218770  -22.281941  52.916435  64.786340  -51.021222  20.679529  87.649113
0.265565  0.000000  0.000000  0.000000  -15.739850  -5.832471  47.207256  66.876008  -28.172397  -24.126067  52.916435  64.786340  -51.021222  20.679529  87.649113
0.266201  0.000000  0.000000  0.000000  -15.739850  -5.832471  51.492971  65.878585  -32.099429  -26.111439  52.916435  64.786340  -51.021222  20.679529  87.649113
0.266836  0.000000  0.000000  0.000000  -15.122429  7.838299  -6.515874  68.249796  32.660410  8.274848  43.706044  46.427805  -58.154733  27.896166  105.594659
0.267471  0.000000  0.000000  0.000000  -15.122429  7.838299  -2.230159  69.172790  28.666760  6.466263  43.706044  46.427805  -58.154733  27.896166  105.594659
0.268107  0.000000  0.000000  0.000000  -15.122429  7.838299  2.055555  69.924943  24.650856  4.791006  43.706044  46.427805  -58.154733  27.896166  105.594659
0.268742  0.000000  0.000000  0.000000  -15.122429  7.838299  6.341269  70.529742  20.617546  3.220531  43.706044  46.427805  -58.154733  27.896166  105.594659
0.269377  0.000000  0.000000  0.000000  -15.122429  7.838299  10.626984  71.004907  16.570784  1.731350  43.706044  46.427805  -58.154733  27.896166  105.594659
0.270013  0.000000  0.000000  0.000000  -15.122429  7.838299  14.912698  71.363639  12.513878  0.303643  43.706044  46.427805  -58.154733  27.896166  105.594659
0.270648  0.000000  0.000000  0.000000  -15.122429  7.838299  19.198412  71.615489  8.449682  -1.079782  43.706044  46.427805  -58.154733  27.896166  105.594659
0.271283  0.000000  0.000000  0.000000  -15.122429  7.838299  23.484126  71.766930  4.380731  -2.434279  43.706044  46.427805  -58.154733  27.896166  105.594659
0.271919  0.000000  0.000000  0.000000  -15.122429  7.838299  27.769841  71.821786  0.309361  -3.774099  43.706044  46.427805  -58.154733  27.896166  105.594659
0.272554  0.000000  0.000000  0.000000  -15.122429  7.838299  32.055555  71.781428  -3.762163  -5.112889  43.706044  46.427805  -58.154733  27.896166  105.594659
